# xmcd
#
# Track frame offsets:
#	150
#	19582
#	33892
#	54814
#	69657
#	88182
#	103042
#	129129
#	144142
#	168652
#	185687
#	199562
#
# Disc length: 2933 seconds
#
# Revision: 0
# Processed by: cddbd v1.5.2PL0 Copyright (c) Steve Scherf et al.
# Submitted via: dBpowerAMP V4.0
#
DISCID=960b730c
DTITLE=Sonny Treadway - "Jesus Will Fix It!" - Sacred Steel Guitar Instrumentals
DYEAR=1997
DGENRE=Sacred Steel
TTITLE0=Jesus Will Fix It For You
TTITLE1=Blessed Assurance, Jesus Is Mine
TTITLE2=How I Got Over
TTITLE3=Lord I Put My Trust In You
TTITLE4=Create In Me A Clean Heart
TTITLE5=No, Never Alone
TTITLE6=Praise In Remembrance Of Bishop Lorenzo Harrison
TTITLE7=Hallelujah Anyhow
TTITLE8=When I've Gone The Last Mile Of The Way
TTITLE9=I Read The Lettter
TTITLE10=Precious Lord, Take My Hand
TTITLE11=Holy, Holy, Holy
EXTD=
EXTT0=
EXTT1=
EXTT2=
EXTT3=
EXTT4=
EXTT5=
EXTT6=
EXTT7=
EXTT8=
EXTT9=
EXTT10=
EXTT11=
PLAYORDER=
